<svg id="svg" version="1.1" xmlns="http://www.w3.org/2000/svg" xmlns:xlink="http://www.w3.org/1999/xlink" width="400" height="400" viewBox="0, 0, 400,400"><g id="svgg"><path id="path0" d="M194.400 40.854 C 192.673 41.833,190.575 44.083,189.835 45.749 C 188.452 48.862,188.400 49.726,188.400 69.798 C 188.400 87.193,188.317 90.044,187.776 91.129 C 187.159 92.366,185.270 94.000,184.457 94.000 C 184.226 94.000,183.579 94.209,183.019 94.464 L 182.000 94.928 182.000 101.585 L 182.000 108.242 183.952 108.944 C 185.912 109.649,187.114 110.650,187.950 112.274 C 188.252 112.861,188.400 116.894,188.400 124.574 L 188.400 136.000 193.400 136.000 L 198.400 136.000 198.379 90.500 L 198.359 45.000 197.448 42.623 C 196.393 39.869,196.267 39.795,194.400 40.854 M235.636 349.052 C 234.683 350.344,232.446 352.795,230.664 354.500 C 228.883 356.205,227.631 357.600,227.883 357.600 C 229.184 357.600,237.860 348.180,237.514 347.143 C 237.434 346.902,236.589 347.761,235.636 349.052 " stroke="none" fill="#d5a9c5" fill-rule="evenodd"></path><path id="path1" d="M193.400 12.600 C 179.386 15.169,167.787 25.027,163.424 38.078 C 161.058 45.156,161.200 37.539,161.200 157.081 C 161.200 235.256,161.075 267.037,160.765 267.717 C 160.526 268.243,158.172 270.708,155.534 273.196 C 147.648 280.635,142.104 288.531,138.752 297.100 C 138.558 297.595,138.238 298.405,138.040 298.900 C 137.326 300.689,136.296 304.125,135.673 306.800 C 134.386 312.324,134.203 314.217,134.203 322.000 C 134.203 331.536,134.564 333.936,137.274 342.400 C 138.358 345.786,138.858 347.077,140.528 350.800 C 146.989 365.204,163.373 379.580,179.000 384.559 C 194.445 389.480,208.840 389.080,223.992 383.311 C 237.265 378.256,250.411 367.087,256.837 355.403 C 258.053 353.192,260.816 347.614,261.297 346.400 C 261.515 345.850,261.852 345.087,262.047 344.705 C 262.241 344.323,262.400 343.736,262.400 343.400 C 262.400 343.064,262.562 342.477,262.761 342.095 C 263.095 341.453,263.526 339.967,264.415 336.400 C 265.866 330.576,266.315 317.511,265.260 311.800 C 264.136 305.711,262.402 299.612,260.825 296.200 C 258.348 290.840,256.916 288.076,256.371 287.600 C 256.245 287.490,256.040 287.130,255.917 286.800 C 255.235 284.982,249.993 278.720,245.202 274.000 C 242.187 271.030,239.514 268.207,239.260 267.726 C 238.615 266.501,238.605 219.126,239.250 217.874 C 240.336 215.764,242.891 214.000,244.858 214.000 C 245.580 214.000,245.613 213.653,245.509 207.144 L 245.400 200.288 243.657 199.773 C 242.699 199.491,241.467 198.841,240.919 198.330 C 238.658 196.218,238.801 201.352,238.793 121.720 C 238.785 45.327,238.808 46.552,237.253 40.400 C 232.584 21.920,212.390 9.119,193.400 12.600 M205.800 27.773 C 206.928 28.043,207.554 28.277,210.000 29.343 C 212.203 30.303,215.611 32.886,217.648 35.141 C 220.100 37.856,221.772 40.924,223.145 45.228 C 223.481 46.283,223.600 76.611,223.600 161.056 L 223.600 275.456 224.505 276.228 C 225.003 276.653,226.556 277.900,227.956 279.000 C 234.208 283.912,238.157 287.715,240.377 290.957 C 240.694 291.421,241.068 291.890,241.207 292.000 C 242.845 293.294,247.333 302.002,248.732 306.600 C 252.355 318.510,251.315 333.434,246.147 343.694 C 244.871 346.226,242.741 347.360,239.730 347.111 C 238.559 347.014,237.600 347.098,237.600 347.297 C 237.600 348.461,229.045 357.600,227.956 357.600 C 227.721 357.600,227.732 357.900,227.986 358.374 C 230.674 363.396,223.617 368.947,211.200 371.579 C 209.990 371.836,208.232 372.215,207.294 372.423 C 201.830 373.631,191.516 372.689,184.200 370.313 C 160.858 362.733,145.030 336.918,149.623 313.920 C 151.877 302.638,155.354 295.501,162.527 287.431 C 164.638 285.056,166.303 283.601,173.100 278.194 L 176.400 275.568 176.400 194.446 C 176.400 121.731,176.465 113.193,177.024 112.071 C 177.835 110.447,179.362 109.384,181.601 108.886 C 182.591 108.666,183.085 108.466,182.700 108.443 C 181.801 108.388,181.606 94.999,182.500 94.698 C 182.775 94.606,182.286 94.395,181.414 94.231 C 179.377 93.846,177.779 92.699,177.002 91.061 C 176.334 89.652,176.289 47.595,176.953 45.000 C 178.619 38.491,184.117 31.950,190.200 29.241 C 190.860 28.947,191.713 28.548,192.095 28.353 C 192.477 28.159,193.197 27.997,193.695 27.994 C 194.193 27.991,194.870 27.807,195.200 27.587 C 195.850 27.153,203.796 27.292,205.800 27.773 M197.311 39.608 L 196.423 39.966 197.411 42.592 L 198.400 45.218 198.400 90.609 L 198.400 136.000 205.000 136.000 L 211.600 136.000 211.594 92.700 C 211.587 45.733,211.674 47.589,209.334 44.269 C 206.615 40.412,200.860 38.181,197.311 39.608 " stroke="none" fill="#a2aae1" fill-rule="evenodd"></path><path id="path2" d="M188.400 214.399 L 188.400 280.411 187.549 281.710 C 187.081 282.424,185.002 284.356,182.930 286.004 C 180.858 287.652,178.766 289.335,178.281 289.745 C 177.797 290.155,176.770 290.965,176.000 291.545 C 156.353 306.342,156.622 337.329,176.530 352.695 C 179.013 354.611,186.148 358.399,187.276 358.400 C 187.648 358.400,188.052 358.560,188.173 358.756 C 188.294 358.951,188.979 359.214,189.696 359.340 C 195.666 360.386,197.425 360.587,200.400 360.567 C 202.270 360.554,204.970 360.322,206.400 360.052 C 207.830 359.781,209.587 359.459,210.304 359.336 C 211.021 359.213,211.706 358.951,211.827 358.756 C 211.948 358.560,212.323 358.400,212.659 358.400 C 212.996 358.400,214.920 357.613,216.935 356.650 C 222.456 354.015,224.242 353.951,226.600 356.309 L 227.575 357.284 229.857 355.342 C 231.112 354.274,233.333 351.898,234.791 350.061 L 237.443 346.723 236.153 345.433 C 233.847 343.127,233.878 341.687,236.383 334.702 C 239.412 326.257,239.444 318.395,236.489 309.000 C 234.722 303.384,228.916 295.273,223.993 291.545 C 223.227 290.965,222.203 290.155,221.719 289.745 C 221.234 289.335,219.134 287.650,217.053 286.000 C 214.971 284.350,212.937 282.460,212.534 281.800 C 211.832 280.652,211.791 277.714,211.600 214.600 L 211.400 148.600 199.900 148.494 L 188.400 148.388 188.400 214.399 " stroke="none" fill="#fb4c5c" fill-rule="evenodd"></path><path id="path3" d="M188.900 0.272 C 187.965 0.368,187.200 0.616,187.200 0.823 C 187.200 1.030,186.480 1.200,185.600 1.200 C 184.720 1.200,184.000 1.380,184.000 1.600 C 184.000 1.820,183.460 2.000,182.800 2.000 C 182.140 2.000,181.600 2.180,181.600 2.400 C 181.600 2.620,181.240 2.800,180.800 2.800 C 180.360 2.800,180.000 2.980,180.000 3.200 C 180.000 3.420,179.550 3.600,179.000 3.600 C 178.450 3.600,178.000 3.780,178.000 4.000 C 178.000 4.220,177.640 4.400,177.200 4.400 C 176.760 4.400,176.400 4.580,176.400 4.800 C 176.400 5.020,176.080 5.200,175.688 5.200 C 175.297 5.200,174.717 5.560,174.400 6.000 C 174.083 6.440,173.503 6.800,173.112 6.800 C 172.720 6.800,172.400 6.967,172.400 7.171 C 172.400 7.375,171.680 7.860,170.800 8.248 C 169.920 8.636,169.200 9.087,169.200 9.250 C 169.200 9.413,168.842 9.660,168.405 9.798 C 167.311 10.146,159.775 17.701,158.970 19.258 C 158.610 19.955,157.974 20.891,157.557 21.338 C 157.141 21.785,156.800 22.387,156.800 22.675 C 156.800 22.964,156.620 23.200,156.400 23.200 C 156.180 23.200,156.000 23.520,156.000 23.912 C 156.000 24.303,155.640 24.883,155.200 25.200 C 154.760 25.517,154.400 26.097,154.400 26.488 C 154.400 26.880,154.220 27.200,154.000 27.200 C 153.780 27.200,153.600 27.560,153.600 28.000 C 153.600 28.440,153.420 28.800,153.200 28.800 C 152.980 28.800,152.800 29.250,152.800 29.800 C 152.800 30.350,152.620 30.800,152.400 30.800 C 152.180 30.800,152.000 31.160,152.000 31.600 C 152.000 32.040,151.820 32.400,151.600 32.400 C 151.380 32.400,151.200 32.940,151.200 33.600 C 151.200 34.260,151.020 34.800,150.800 34.800 C 150.580 34.800,150.400 35.419,150.400 36.176 C 150.400 36.933,150.220 37.664,150.000 37.800 C 149.780 37.936,149.600 38.746,149.600 39.600 C 149.600 40.454,149.420 41.264,149.200 41.400 C 148.977 41.538,148.800 43.396,148.800 45.600 C 148.800 47.804,148.623 49.662,148.400 49.800 C 148.135 49.964,148.000 85.877,148.000 156.242 L 148.000 262.436 147.018 263.418 C 146.478 263.958,145.926 264.400,145.792 264.400 C 145.423 264.400,141.600 268.404,141.600 268.791 C 141.600 268.976,140.610 270.158,139.400 271.418 C 138.190 272.677,137.200 273.914,137.200 274.165 C 137.200 274.417,136.840 274.883,136.400 275.200 C 135.960 275.517,135.600 275.967,135.600 276.200 C 135.600 276.433,135.240 276.883,134.800 277.200 C 134.360 277.517,134.000 278.057,134.000 278.400 C 134.000 278.743,133.640 279.283,133.200 279.600 C 132.760 279.917,132.400 280.482,132.400 280.855 C 132.400 281.228,132.265 281.593,132.100 281.667 C 131.724 281.834,130.425 283.964,130.129 284.900 C 130.007 285.285,129.748 285.600,129.553 285.600 C 129.359 285.600,129.200 285.836,129.200 286.125 C 129.200 286.414,128.840 287.395,128.400 288.306 C 127.960 289.216,127.600 290.240,127.600 290.581 C 127.600 290.921,127.420 291.200,127.200 291.200 C 126.980 291.200,126.800 291.472,126.800 291.805 C 126.800 292.138,126.626 292.723,126.413 293.105 C 125.767 294.264,124.800 297.566,124.800 298.614 C 124.800 299.156,124.620 299.600,124.400 299.600 C 124.180 299.600,124.000 300.320,124.000 301.200 C 124.000 302.080,123.820 302.800,123.600 302.800 C 123.380 302.800,123.200 303.520,123.200 304.400 C 123.200 305.280,123.020 306.000,122.800 306.000 C 122.578 306.000,122.400 307.067,122.400 308.400 C 122.400 309.733,122.222 310.800,122.000 310.800 C 121.743 310.800,121.600 314.800,121.600 322.000 C 121.600 329.200,121.743 333.200,122.000 333.200 C 122.220 333.200,122.400 334.179,122.400 335.376 C 122.400 336.573,122.580 337.664,122.800 337.800 C 123.020 337.936,123.200 338.656,123.200 339.400 C 123.200 340.144,123.380 340.864,123.600 341.000 C 123.820 341.136,124.000 341.867,124.000 342.624 C 124.000 343.381,124.180 344.000,124.400 344.000 C 124.620 344.000,124.800 344.438,124.800 344.972 C 124.800 346.154,126.848 352.547,127.287 352.733 C 127.459 352.807,127.600 353.201,127.600 353.610 C 127.600 354.018,127.780 354.464,128.000 354.600 C 128.220 354.736,128.400 355.197,128.400 355.624 C 128.400 356.051,128.580 356.400,128.800 356.400 C 129.020 356.400,129.200 356.760,129.200 357.200 C 129.200 357.640,129.380 358.000,129.600 358.000 C 129.820 358.000,130.000 358.278,130.000 358.617 C 130.000 358.956,130.360 359.620,130.800 360.092 C 131.240 360.564,131.600 361.187,131.600 361.475 C 131.600 361.764,131.780 362.000,132.000 362.000 C 132.220 362.000,132.400 362.360,132.400 362.800 C 132.400 363.240,132.550 363.600,132.732 363.600 C 132.915 363.600,133.320 364.095,133.632 364.700 C 133.945 365.305,134.515 366.149,134.900 366.575 C 135.285 367.002,135.600 367.499,135.600 367.679 C 135.600 367.860,136.140 368.572,136.800 369.263 C 137.460 369.954,138.000 370.686,138.000 370.891 C 138.000 371.095,138.720 371.954,139.600 372.800 C 140.480 373.646,141.200 374.462,141.200 374.614 C 141.200 374.954,147.015 380.800,147.353 380.800 C 147.487 380.800,148.515 381.700,149.639 382.800 C 150.762 383.900,151.893 384.800,152.152 384.800 C 152.411 384.800,152.883 385.160,153.200 385.600 C 153.517 386.040,153.973 386.400,154.213 386.400 C 154.453 386.400,154.998 386.715,155.425 387.100 C 155.851 387.485,156.695 388.055,157.300 388.368 C 157.905 388.680,158.400 389.085,158.400 389.268 C 158.400 389.450,158.584 389.600,158.808 389.600 C 159.032 389.600,159.929 390.050,160.800 390.600 C 161.671 391.150,162.658 391.600,162.992 391.600 C 163.326 391.600,163.600 391.780,163.600 392.000 C 163.600 392.220,163.960 392.400,164.400 392.400 C 164.840 392.400,165.200 392.580,165.200 392.800 C 165.200 393.020,165.560 393.200,166.000 393.200 C 166.440 393.200,166.800 393.380,166.800 393.600 C 166.800 393.820,167.239 394.000,167.776 394.000 C 168.313 394.000,168.864 394.180,169.000 394.400 C 169.136 394.620,169.597 394.800,170.024 394.800 C 170.451 394.800,170.800 394.980,170.800 395.200 C 170.800 395.420,171.340 395.600,172.000 395.600 C 172.660 395.600,173.200 395.780,173.200 396.000 C 173.200 396.220,173.650 396.400,174.200 396.400 C 174.750 396.400,175.200 396.580,175.200 396.800 C 175.200 397.020,175.740 397.200,176.400 397.200 C 177.060 397.200,177.600 397.380,177.600 397.600 C 177.600 397.820,178.219 398.000,178.976 398.000 C 179.733 398.000,180.464 398.180,180.600 398.400 C 180.736 398.620,181.542 398.800,182.390 398.800 C 183.269 398.800,184.005 399.015,184.100 399.300 C 184.343 400.029,215.657 400.029,215.900 399.300 C 215.995 399.015,216.731 398.800,217.610 398.800 C 218.458 398.800,219.264 398.620,219.400 398.400 C 219.536 398.180,220.267 398.000,221.024 398.000 C 221.781 398.000,222.400 397.820,222.400 397.600 C 222.400 397.380,222.839 397.200,223.376 397.200 C 223.913 397.200,224.464 397.020,224.600 396.800 C 224.736 396.580,225.276 396.400,225.800 396.400 C 226.324 396.400,226.864 396.220,227.000 396.000 C 227.136 395.780,227.687 395.600,228.224 395.600 C 228.761 395.600,229.200 395.420,229.200 395.200 C 229.200 394.980,229.549 394.800,229.976 394.800 C 230.403 394.800,230.864 394.620,231.000 394.400 C 231.136 394.180,231.687 394.000,232.224 394.000 C 232.761 394.000,233.200 393.820,233.200 393.600 C 233.200 393.380,233.560 393.200,234.000 393.200 C 234.440 393.200,234.800 393.020,234.800 392.800 C 234.800 392.580,235.160 392.400,235.600 392.400 C 236.040 392.400,236.400 392.220,236.400 392.000 C 236.400 391.780,236.674 391.600,237.008 391.600 C 237.342 391.600,238.329 391.150,239.200 390.600 C 240.071 390.050,240.968 389.600,241.192 389.600 C 241.416 389.600,241.600 389.450,241.600 389.268 C 241.600 389.085,242.095 388.680,242.700 388.368 C 243.305 388.055,244.149 387.485,244.575 387.100 C 245.002 386.715,245.547 386.400,245.787 386.400 C 246.027 386.400,246.483 386.040,246.800 385.600 C 247.117 385.160,247.577 384.800,247.822 384.800 C 248.889 384.800,262.000 371.848,262.000 370.794 C 262.000 370.577,262.180 370.400,262.400 370.400 C 262.620 370.400,262.800 370.170,262.800 369.888 C 262.800 369.607,263.160 369.117,263.600 368.800 C 264.040 368.483,264.400 367.943,264.400 367.600 C 264.400 367.257,264.760 366.717,265.200 366.400 C 265.640 366.083,266.000 365.543,266.000 365.200 C 266.000 364.857,266.360 364.317,266.800 364.000 C 267.240 363.683,267.600 363.103,267.600 362.712 C 267.600 362.320,267.780 362.000,268.000 362.000 C 268.220 362.000,268.400 361.764,268.400 361.475 C 268.400 361.187,268.760 360.564,269.200 360.092 C 269.640 359.620,270.000 358.956,270.000 358.617 C 270.000 358.278,270.180 358.000,270.400 358.000 C 270.620 358.000,270.800 357.640,270.800 357.200 C 270.800 356.760,270.980 356.400,271.200 356.400 C 271.420 356.400,271.600 356.051,271.600 355.624 C 271.600 355.197,271.780 354.736,272.000 354.600 C 272.220 354.464,272.400 354.018,272.400 353.610 C 272.400 353.201,272.541 352.807,272.713 352.733 C 273.152 352.547,275.200 346.154,275.200 344.972 C 275.200 344.438,275.380 344.000,275.600 344.000 C 275.820 344.000,276.000 343.381,276.000 342.624 C 276.000 341.867,276.180 341.136,276.400 341.000 C 276.620 340.864,276.800 340.144,276.800 339.400 C 276.800 338.656,276.980 337.936,277.200 337.800 C 277.420 337.664,277.600 336.584,277.600 335.400 C 277.600 334.216,277.780 333.136,278.000 333.000 C 278.544 332.664,278.544 311.336,278.000 311.000 C 277.780 310.864,277.600 309.683,277.600 308.376 C 277.600 307.059,277.422 306.000,277.200 306.000 C 276.980 306.000,276.800 305.280,276.800 304.400 C 276.800 303.520,276.620 302.800,276.400 302.800 C 276.180 302.800,276.000 302.080,276.000 301.200 C 276.000 300.320,275.820 299.600,275.600 299.600 C 275.380 299.600,275.200 299.156,275.200 298.614 C 275.200 297.566,274.233 294.264,273.587 293.105 C 273.374 292.723,273.200 292.138,273.200 291.805 C 273.200 291.472,273.020 291.200,272.800 291.200 C 272.580 291.200,272.395 290.885,272.390 290.500 C 272.384 290.115,271.645 288.360,270.746 286.600 C 269.847 284.840,268.907 282.996,268.656 282.503 C 268.405 282.010,268.065 281.605,267.900 281.603 C 267.735 281.601,267.600 281.280,267.600 280.888 C 267.600 280.497,267.240 279.917,266.800 279.600 C 266.360 279.283,266.000 278.743,266.000 278.400 C 266.000 278.057,265.640 277.517,265.200 277.200 C 264.760 276.883,264.400 276.433,264.400 276.200 C 264.400 275.967,264.040 275.517,263.600 275.200 C 263.160 274.883,262.800 274.409,262.800 274.147 C 262.800 273.884,261.720 272.573,260.400 271.232 C 259.080 269.892,258.000 268.604,258.000 268.371 C 258.000 267.914,254.807 264.698,253.069 263.405 L 252.000 262.610 252.000 241.329 C 252.000 227.573,251.859 219.960,251.600 219.800 C 251.380 219.664,251.200 219.005,251.200 218.336 C 251.200 217.486,250.806 216.741,249.892 215.860 C 247.700 213.749,245.600 212.915,245.600 214.157 C 245.600 214.787,244.753 215.200,243.463 215.200 C 242.318 215.200,240.546 216.876,239.798 218.667 C 238.994 220.591,238.898 264.247,239.692 266.790 C 240.029 267.870,240.882 268.971,242.392 270.278 C 247.566 274.753,255.600 283.832,255.600 285.202 C 255.600 285.421,255.759 285.600,255.953 285.600 C 256.148 285.600,256.407 285.915,256.529 286.300 C 256.751 287.001,258.017 289.224,258.408 289.600 C 258.651 289.834,261.159 295.027,261.595 296.200 C 261.759 296.640,262.097 297.495,262.346 298.100 C 263.400 300.656,263.546 301.048,263.794 302.000 C 263.937 302.550,264.235 303.630,264.457 304.400 C 267.060 313.439,267.450 326.043,265.416 335.400 C 264.539 339.434,263.388 343.431,262.421 345.800 C 261.543 347.951,257.772 355.416,257.505 355.533 C 257.337 355.607,257.200 355.842,257.200 356.055 C 257.200 358.159,247.227 369.610,241.223 374.400 C 235.067 379.311,225.265 384.376,218.743 386.015 C 217.785 386.256,216.280 386.632,215.400 386.852 C 211.151 387.912,208.318 388.155,200.000 388.173 C 191.525 388.192,189.934 388.057,184.289 386.834 C 176.148 385.071,163.213 378.660,158.274 373.940 C 157.618 373.313,156.964 372.800,156.820 372.800 C 155.383 372.800,142.800 357.741,142.800 356.022 C 142.800 355.790,142.662 355.600,142.494 355.600 C 142.326 355.600,141.882 354.925,141.506 354.100 C 141.131 353.275,140.569 352.150,140.256 351.600 C 135.530 343.280,132.881 331.080,133.339 319.744 C 133.574 313.912,133.943 310.788,134.818 307.200 C 135.060 306.210,135.355 304.813,135.473 304.096 C 135.592 303.379,135.849 302.694,136.044 302.573 C 136.240 302.452,136.400 301.924,136.400 301.400 C 136.400 300.876,136.580 300.336,136.800 300.200 C 137.020 300.064,137.200 299.691,137.200 299.372 C 137.200 299.053,137.579 297.938,138.042 296.896 C 139.355 293.938,141.362 289.821,141.597 289.600 C 141.715 289.490,142.223 288.581,142.727 287.580 C 144.872 283.320,151.054 276.097,157.505 270.313 C 158.663 269.274,159.833 267.924,160.105 267.313 C 160.493 266.441,160.649 242.078,160.825 155.000 C 160.978 79.548,161.185 43.221,161.470 42.000 C 167.063 18.022,192.685 5.092,215.693 14.637 C 226.124 18.964,235.551 29.855,237.991 40.400 C 238.271 41.610,238.657 43.122,238.850 43.760 C 239.045 44.405,239.200 77.968,239.200 119.411 C 239.200 200.490,239.059 195.423,241.376 197.739 C 241.922 198.286,243.079 198.844,243.980 198.997 C 244.979 199.165,245.600 199.487,245.600 199.835 C 245.600 201.084,247.694 200.257,249.892 198.140 C 250.779 197.286,251.200 196.507,251.200 195.720 C 251.200 195.082,251.381 194.379,251.602 194.158 C 252.531 193.229,251.713 42.373,250.774 41.420 C 250.568 41.211,250.400 40.356,250.400 39.520 C 250.400 38.684,250.220 38.000,250.000 38.000 C 249.780 38.000,249.600 37.280,249.600 36.400 C 249.600 35.520,249.420 34.800,249.200 34.800 C 248.980 34.800,248.800 34.260,248.800 33.600 C 248.800 32.940,248.620 32.400,248.400 32.400 C 248.180 32.400,248.000 32.040,248.000 31.600 C 248.000 31.160,247.820 30.800,247.600 30.800 C 247.380 30.800,247.200 30.350,247.200 29.800 C 247.200 29.250,247.020 28.800,246.800 28.800 C 246.580 28.800,246.400 28.440,246.400 28.000 C 246.400 27.560,246.220 27.200,246.000 27.200 C 245.780 27.200,245.600 26.880,245.600 26.488 C 245.600 26.097,245.240 25.517,244.800 25.200 C 244.360 24.883,244.000 24.303,244.000 23.912 C 244.000 23.520,243.820 23.200,243.600 23.200 C 243.380 23.200,243.200 22.964,243.200 22.675 C 243.200 22.387,242.885 21.802,242.500 21.375 C 242.115 20.949,241.273 19.790,240.628 18.800 C 239.250 16.683,232.667 10.139,231.563 9.788 C 231.143 9.655,230.800 9.407,230.800 9.237 C 230.800 9.068,230.082 8.585,229.205 8.164 C 228.327 7.744,227.607 7.265,227.605 7.100 C 227.602 6.935,227.280 6.800,226.888 6.800 C 226.497 6.800,225.917 6.440,225.600 6.000 C 225.283 5.560,224.703 5.200,224.312 5.200 C 223.920 5.200,223.600 5.020,223.600 4.800 C 223.600 4.580,223.240 4.400,222.800 4.400 C 222.360 4.400,222.000 4.220,222.000 4.000 C 222.000 3.780,221.550 3.600,221.000 3.600 C 220.450 3.600,220.000 3.420,220.000 3.200 C 220.000 2.980,219.640 2.800,219.200 2.800 C 218.760 2.800,218.400 2.620,218.400 2.400 C 218.400 2.180,217.860 2.000,217.200 2.000 C 216.540 2.000,216.000 1.820,216.000 1.600 C 216.000 1.380,215.295 1.200,214.433 1.200 C 213.536 1.200,212.796 0.987,212.700 0.700 C 212.534 0.201,193.036 -0.150,188.900 0.272 M197.400 27.979 C 196.960 28.179,195.936 28.356,195.124 28.372 C 194.312 28.387,193.536 28.580,193.400 28.800 C 193.264 29.020,192.878 29.200,192.542 29.200 C 188.458 29.200,178.360 39.247,178.394 43.276 C 178.397 43.648,178.239 44.052,178.042 44.174 C 176.868 44.899,176.273 87.881,177.404 90.264 C 178.972 93.569,182.960 94.660,185.554 92.495 C 187.970 90.478,187.987 90.297,187.994 67.724 C 187.998 54.511,188.142 47.160,188.400 47.000 C 188.620 46.864,188.800 46.403,188.800 45.976 C 188.800 45.549,188.980 45.200,189.200 45.200 C 189.420 45.200,189.600 44.944,189.600 44.632 C 189.600 43.892,193.092 40.400,193.832 40.400 C 194.144 40.400,194.400 40.220,194.400 40.000 C 194.400 39.780,194.749 39.600,195.176 39.600 C 195.603 39.600,196.064 39.420,196.200 39.200 C 196.336 38.980,198.046 38.800,200.000 38.800 C 201.954 38.800,203.664 38.980,203.800 39.200 C 203.936 39.420,204.397 39.600,204.824 39.600 C 205.251 39.600,205.600 39.780,205.600 40.000 C 205.600 40.220,205.856 40.400,206.168 40.400 C 206.908 40.400,210.400 43.892,210.400 44.632 C 210.400 44.944,210.580 45.200,210.800 45.200 C 211.020 45.200,211.200 45.549,211.200 45.976 C 211.200 46.403,211.380 46.864,211.600 47.000 C 211.863 47.162,212.000 62.604,212.000 92.024 L 212.000 136.800 200.000 136.800 L 188.000 136.800 188.000 125.649 C 188.000 113.246,187.866 112.454,185.467 110.624 C 183.564 109.172,180.850 109.193,179.190 110.672 C 176.608 112.972,176.800 106.184,176.800 195.215 L 176.800 276.308 175.700 277.027 C 175.095 277.423,174.359 277.986,174.065 278.279 C 173.771 278.572,172.874 279.304,172.071 279.906 C 167.744 283.148,163.849 286.766,161.200 290.001 C 160.210 291.211,159.265 292.260,159.100 292.333 C 158.935 292.407,158.800 292.688,158.800 292.958 C 158.800 293.228,158.485 293.807,158.100 294.245 C 156.692 295.845,154.327 300.396,153.021 304.017 C 148.110 317.632,148.746 331.190,154.897 344.000 C 156.346 347.019,158.508 350.643,159.193 351.200 C 159.328 351.310,159.866 352.030,160.388 352.800 C 164.214 358.442,173.587 365.517,181.000 368.358 C 182.320 368.864,183.760 369.420,184.200 369.593 C 184.640 369.767,185.720 370.094,186.600 370.321 C 187.480 370.548,188.920 370.920,189.800 371.147 C 196.779 372.946,209.143 372.208,215.800 369.595 C 216.240 369.422,217.230 369.056,218.000 368.781 C 225.836 365.982,228.845 362.973,227.595 359.186 C 226.289 355.227,222.623 354.513,217.400 357.200 C 215.689 358.080,213.965 358.800,213.568 358.800 C 213.172 358.800,212.736 358.980,212.600 359.200 C 212.464 359.420,211.949 359.600,211.456 359.600 C 210.963 359.600,210.389 359.762,210.180 359.959 C 209.114 360.967,195.448 361.330,191.800 360.448 C 190.700 360.182,189.303 359.861,188.695 359.736 C 188.087 359.610,187.492 359.349,187.371 359.154 C 187.251 358.959,186.828 358.800,186.432 358.800 C 185.532 358.800,180.360 356.160,177.753 354.371 C 171.025 349.752,164.803 341.593,162.830 334.800 C 162.543 333.810,162.167 332.550,161.996 332.000 C 161.010 328.828,160.751 326.192,160.914 321.000 C 161.117 314.560,161.686 311.525,163.572 306.831 C 166.024 300.726,170.587 294.936,176.833 290.006 C 184.433 284.007,186.641 282.085,187.200 280.983 C 187.724 279.950,187.825 271.404,188.000 213.800 L 188.200 147.800 200.000 147.800 L 211.800 147.800 212.000 213.800 C 212.175 271.404,212.276 279.950,212.800 280.983 C 213.130 281.633,214.930 283.401,216.800 284.912 C 220.857 288.189,220.911 288.232,223.198 290.006 C 228.956 294.472,234.123 301.112,236.577 307.200 C 238.297 311.466,238.888 314.719,239.086 321.000 C 239.298 327.745,238.416 332.529,235.972 337.896 C 233.575 343.161,237.558 348.281,242.459 346.233 C 247.247 344.233,251.338 328.479,250.017 317.132 C 248.987 308.287,245.430 298.258,241.900 294.245 C 241.515 293.807,241.200 293.228,241.200 292.958 C 241.200 292.688,241.065 292.407,240.900 292.333 C 240.735 292.260,239.790 291.211,238.800 290.001 C 236.151 286.766,232.256 283.148,227.929 279.906 C 227.126 279.304,226.229 278.572,225.935 278.279 C 225.641 277.986,224.905 277.423,224.300 277.027 L 223.200 276.308 223.200 162.760 C 223.200 82.433,223.073 48.654,222.765 47.306 C 221.406 41.351,219.810 38.278,216.180 34.632 C 213.549 31.989,209.099 29.200,207.514 29.200 C 207.209 29.200,206.789 29.038,206.580 28.841 C 205.838 28.140,198.547 27.455,197.400 27.979 M97.200 58.000 C 97.200 58.220,96.906 58.400,96.547 58.400 C 95.737 58.400,94.001 60.361,94.000 61.276 C 94.000 61.648,93.820 62.064,93.600 62.200 C 91.941 63.225,95.209 70.000,97.363 70.000 C 97.687 70.000,98.064 70.180,98.200 70.400 C 98.358 70.656,104.271 70.800,114.624 70.800 C 125.141 70.800,130.800 70.660,130.800 70.400 C 130.800 70.180,131.034 70.000,131.320 70.000 C 135.828 70.000,137.076 61.682,133.031 58.597 L 131.724 57.600 114.462 57.600 C 103.221 57.600,97.200 57.740,97.200 58.000 M266.924 58.614 C 262.928 61.765,264.197 70.000,268.680 70.000 C 268.966 70.000,269.200 70.180,269.200 70.400 C 269.200 70.660,274.859 70.800,285.376 70.800 C 295.729 70.800,301.642 70.656,301.800 70.400 C 301.936 70.180,302.313 70.000,302.637 70.000 C 303.504 70.000,306.000 67.355,306.000 66.437 C 306.000 66.003,306.180 65.536,306.400 65.400 C 307.795 64.538,305.257 58.400,303.505 58.400 C 303.117 58.400,302.800 58.220,302.800 58.000 C 302.800 57.739,296.770 57.602,285.500 57.604 L 268.200 57.609 266.924 58.614 M126.400 79.600 C 126.400 79.820,126.122 80.000,125.782 80.000 C 124.982 80.000,123.200 81.782,123.200 82.582 C 123.200 82.922,123.020 83.200,122.800 83.200 C 122.571 83.200,122.400 84.400,122.400 86.000 C 122.400 87.600,122.571 88.800,122.800 88.800 C 123.020 88.800,123.200 89.094,123.200 89.453 C 123.200 90.207,124.667 91.600,125.461 91.600 C 125.758 91.600,126.000 91.780,126.000 92.000 C 126.000 92.229,127.200 92.400,128.800 92.400 C 130.400 92.400,131.600 92.229,131.600 92.000 C 131.600 91.780,131.929 91.600,132.330 91.600 C 133.078 91.600,134.209 90.499,135.100 88.905 C 135.695 87.841,135.776 83.200,135.200 83.200 C 134.980 83.200,134.800 82.922,134.800 82.582 C 134.800 81.793,133.023 80.000,132.242 80.000 C 131.915 80.000,131.536 79.820,131.400 79.600 C 131.264 79.380,130.083 79.200,128.776 79.200 C 127.459 79.200,126.400 79.378,126.400 79.600 M268.600 79.600 C 268.464 79.820,268.085 80.000,267.758 80.000 C 266.977 80.000,265.200 81.793,265.200 82.582 C 265.200 82.922,265.020 83.200,264.800 83.200 C 264.224 83.200,264.305 87.841,264.900 88.905 C 265.791 90.499,266.922 91.600,267.670 91.600 C 268.071 91.600,268.400 91.780,268.400 92.000 C 268.400 92.229,269.600 92.400,271.200 92.400 C 272.800 92.400,274.000 92.229,274.000 92.000 C 274.000 91.780,274.242 91.600,274.539 91.600 C 275.333 91.600,276.800 90.207,276.800 89.453 C 276.800 89.094,276.980 88.800,277.200 88.800 C 277.429 88.800,277.600 87.600,277.600 86.000 C 277.600 84.400,277.429 83.200,277.200 83.200 C 276.980 83.200,276.800 82.922,276.800 82.582 C 276.800 81.782,275.018 80.000,274.218 80.000 C 273.878 80.000,273.600 79.820,273.600 79.600 C 273.600 79.378,272.541 79.200,271.224 79.200 C 269.917 79.200,268.736 79.380,268.600 79.600 M96.200 110.503 C 94.576 111.690,94.028 112.436,94.013 113.476 C 94.006 113.958,93.820 114.464,93.600 114.600 C 91.632 115.816,95.249 122.000,98.289 122.616 C 100.328 123.030,129.036 123.023,130.800 122.609 C 132.338 122.247,134.800 120.051,134.800 119.040 C 134.800 118.688,134.980 118.400,135.200 118.400 C 135.422 118.400,135.600 117.333,135.600 116.000 C 135.600 114.667,135.422 113.600,135.200 113.600 C 134.980 113.600,134.800 113.309,134.800 112.954 C 134.800 112.599,134.135 111.699,133.322 110.954 L 131.844 109.600 114.622 109.613 C 97.534 109.625,97.391 109.632,96.200 110.503 M266.678 110.954 C 265.865 111.699,265.200 112.599,265.200 112.954 C 265.200 113.309,265.020 113.600,264.800 113.600 C 264.578 113.600,264.400 114.667,264.400 116.000 C 264.400 117.333,264.578 118.400,264.800 118.400 C 265.020 118.400,265.200 118.688,265.200 119.040 C 265.200 120.051,267.662 122.247,269.200 122.609 C 270.962 123.023,299.672 123.030,301.704 122.617 C 303.528 122.247,306.000 119.925,306.000 118.584 C 306.000 118.069,306.180 117.536,306.400 117.400 C 306.620 117.264,306.800 116.634,306.800 116.000 C 306.800 115.366,306.620 114.736,306.400 114.600 C 306.180 114.464,305.994 113.958,305.987 113.476 C 305.934 109.827,304.722 109.600,285.316 109.600 L 268.156 109.600 266.678 110.954 M125.824 132.124 C 124.476 132.951,123.200 134.340,123.200 134.982 C 123.200 135.322,123.020 135.600,122.800 135.600 C 122.224 135.600,122.305 140.246,122.900 141.283 C 123.692 142.665,125.108 144.000,125.782 144.000 C 126.122 144.000,126.400 144.180,126.400 144.400 C 126.400 144.626,127.533 144.800,129.000 144.800 C 130.467 144.800,131.600 144.626,131.600 144.400 C 131.600 144.180,131.878 144.000,132.218 144.000 C 133.018 144.000,134.800 142.218,134.800 141.418 C 134.800 141.078,134.980 140.800,135.200 140.800 C 135.426 140.800,135.600 139.667,135.600 138.200 C 135.600 136.733,135.426 135.600,135.200 135.600 C 134.980 135.600,134.800 135.322,134.800 134.982 C 134.800 134.182,133.018 132.400,132.218 132.400 C 131.878 132.400,131.600 132.220,131.600 132.000 C 131.600 131.438,126.772 131.541,125.824 132.124 M268.400 132.000 C 268.400 132.220,268.122 132.400,267.782 132.400 C 266.982 132.400,265.200 134.182,265.200 134.982 C 265.200 135.322,265.020 135.600,264.800 135.600 C 264.574 135.600,264.400 136.733,264.400 138.200 C 264.400 139.667,264.574 140.800,264.800 140.800 C 265.020 140.800,265.200 141.078,265.200 141.418 C 265.200 142.218,266.982 144.000,267.782 144.000 C 268.122 144.000,268.400 144.180,268.400 144.400 C 268.400 144.626,269.533 144.800,271.000 144.800 C 272.467 144.800,273.600 144.626,273.600 144.400 C 273.600 144.180,273.878 144.000,274.218 144.000 C 275.018 144.000,276.800 142.218,276.800 141.418 C 276.800 141.078,276.980 140.800,277.200 140.800 C 277.426 140.800,277.600 139.667,277.600 138.200 C 277.600 136.733,277.426 135.600,277.200 135.600 C 276.980 135.600,276.800 135.322,276.800 134.982 C 276.800 134.308,275.465 132.892,274.083 132.100 C 273.046 131.505,268.400 131.424,268.400 132.000 M99.200 161.600 C 98.870 161.813,98.210 161.991,97.734 161.994 C 95.415 162.010,91.860 168.724,93.600 169.800 C 93.820 169.936,94.000 170.453,94.000 170.949 C 94.000 171.873,95.516 173.551,97.074 174.351 C 98.303 174.982,130.916 174.980,132.096 174.349 C 133.366 173.669,134.800 172.115,134.800 171.418 C 134.800 171.078,134.980 170.800,135.200 170.800 C 135.422 170.800,135.600 169.733,135.600 168.400 C 135.600 167.067,135.422 166.000,135.200 166.000 C 134.980 166.000,134.800 165.712,134.800 165.360 C 134.800 164.331,132.207 162.000,131.064 162.000 C 130.505 162.000,129.936 161.820,129.800 161.600 C 129.470 161.066,100.026 161.066,99.200 161.600 M270.206 161.591 C 270.067 161.816,269.495 162.000,268.936 162.000 C 267.907 162.000,265.887 163.753,264.900 165.503 C 264.306 166.556,264.226 170.800,264.800 170.800 C 265.020 170.800,265.200 171.078,265.200 171.418 C 265.200 172.115,266.634 173.669,267.904 174.349 C 269.084 174.980,301.697 174.982,302.926 174.351 C 304.484 173.551,306.000 171.873,306.000 170.949 C 306.000 170.453,306.180 169.936,306.400 169.800 C 306.620 169.664,306.800 169.034,306.800 168.400 C 306.800 167.766,306.620 167.136,306.400 167.000 C 306.180 166.864,306.000 166.331,306.000 165.816 C 306.000 164.577,303.565 162.176,301.906 161.782 C 299.828 161.287,270.503 161.111,270.206 161.591 M124.600 185.354 C 123.940 186.068,123.175 187.043,122.900 187.521 C 122.305 188.553,122.224 193.200,122.800 193.200 C 123.020 193.200,123.200 193.478,123.200 193.818 C 123.200 194.699,125.017 196.400,125.958 196.400 C 126.395 196.400,126.864 196.580,127.000 196.800 C 127.136 197.020,128.047 197.200,129.024 197.200 C 130.001 197.200,130.800 197.020,130.800 196.800 C 130.800 196.580,131.072 196.400,131.405 196.400 C 132.694 196.400,134.800 194.805,134.800 193.829 C 134.800 193.483,134.980 193.200,135.200 193.200 C 135.426 193.200,135.600 192.067,135.600 190.600 C 135.600 189.133,135.426 188.000,135.200 188.000 C 134.980 188.000,134.800 187.709,134.800 187.354 C 134.800 184.173,127.088 182.661,124.600 185.354 M266.678 185.354 C 265.865 186.099,265.200 186.999,265.200 187.354 C 265.200 187.709,265.020 188.000,264.800 188.000 C 264.574 188.000,264.400 189.133,264.400 190.600 C 264.400 192.030,264.536 193.200,264.702 193.200 C 264.869 193.200,265.226 193.695,265.497 194.300 C 265.966 195.347,267.561 196.400,268.680 196.400 C 268.966 196.400,269.200 196.580,269.200 196.800 C 269.200 197.020,269.999 197.200,270.976 197.200 C 271.953 197.200,272.864 197.020,273.000 196.800 C 273.136 196.580,273.605 196.400,274.042 196.400 C 274.983 196.400,276.800 194.699,276.800 193.818 C 276.800 193.478,276.980 193.200,277.200 193.200 C 277.776 193.200,277.695 188.554,277.100 187.520 C 274.845 183.599,269.750 182.540,266.678 185.354 M98.200 214.000 C 98.064 214.220,97.687 214.400,97.363 214.400 C 96.391 214.400,94.225 216.884,93.640 218.668 C 92.757 221.360,94.597 226.000,96.547 226.000 C 96.906 226.000,97.200 226.180,97.200 226.400 C 97.200 226.661,103.241 226.800,114.522 226.800 L 131.844 226.800 133.222 225.493 C 137.066 221.847,135.790 214.400,131.320 214.400 C 131.034 214.400,130.800 214.220,130.800 214.000 C 130.800 213.740,125.141 213.600,114.624 213.600 C 104.271 213.600,98.358 213.744,98.200 214.000 M269.200 214.000 C 269.200 214.220,268.966 214.400,268.680 214.400 C 264.210 214.400,262.934 221.847,266.778 225.493 L 268.156 226.800 285.478 226.800 C 296.759 226.800,302.800 226.661,302.800 226.400 C 302.800 226.180,303.094 226.000,303.453 226.000 C 305.403 226.000,307.243 221.360,306.360 218.668 C 305.775 216.884,303.609 214.400,302.637 214.400 C 302.313 214.400,301.936 214.220,301.800 214.000 C 301.642 213.744,295.729 213.600,285.376 213.600 C 274.859 213.600,269.200 213.740,269.200 214.000 M124.100 238.220 C 122.478 239.901,121.398 245.600,122.702 245.600 C 122.869 245.600,123.226 246.095,123.497 246.700 C 123.995 247.811,125.576 248.800,126.856 248.800 C 127.239 248.800,127.664 248.980,127.800 249.200 C 127.936 249.420,128.487 249.600,129.024 249.600 C 129.561 249.600,130.000 249.420,130.000 249.200 C 130.000 248.980,130.540 248.800,131.200 248.800 C 131.860 248.800,132.400 248.620,132.400 248.400 C 132.400 248.180,132.676 248.000,133.013 248.000 C 133.349 248.000,133.745 247.685,133.892 247.300 C 134.039 246.915,134.484 246.251,134.880 245.825 C 135.672 244.972,135.942 240.400,135.200 240.400 C 134.980 240.400,134.800 240.124,134.800 239.787 C 134.800 237.906,132.158 236.399,128.913 236.429 L 125.800 236.458 124.100 238.220 M266.600 237.754 C 264.220 240.330,263.527 244.109,265.120 245.825 C 265.516 246.251,265.961 246.915,266.108 247.300 C 266.255 247.685,266.651 248.000,266.987 248.000 C 267.324 248.000,267.600 248.180,267.600 248.400 C 267.600 248.620,268.140 248.800,268.800 248.800 C 269.460 248.800,270.000 248.980,270.000 249.200 C 270.000 249.420,270.439 249.600,270.976 249.600 C 271.513 249.600,272.064 249.420,272.200 249.200 C 272.336 248.980,272.761 248.800,273.144 248.800 C 274.424 248.800,276.005 247.811,276.503 246.700 C 276.774 246.095,277.131 245.600,277.298 245.600 C 278.659 245.600,277.514 239.893,275.811 238.189 L 274.021 236.400 270.911 236.427 C 267.930 236.454,267.750 236.509,266.600 237.754 " stroke="none" fill="#040404" fill-rule="evenodd"></path><path id="path4" d="M192.200 148.282 C 202.183 148.565,211.601 148.574,211.600 148.300 C 211.600 148.135,206.335 148.038,199.900 148.084 C 193.465 148.131,190.000 148.220,192.200 148.282 M188.054 279.267 C 188.025 279.634,187.884 280.264,187.741 280.667 C 187.541 281.233,187.595 281.296,187.975 280.946 C 188.246 280.697,188.387 280.067,188.288 279.546 C 188.190 279.026,188.084 278.900,188.054 279.267 M211.628 279.876 C 211.613 280.358,211.780 280.864,212.000 281.000 C 212.473 281.292,212.473 280.901,212.000 279.800 C 211.669 279.029,211.655 279.031,211.628 279.876 M186.562 282.443 C 186.143 282.907,184.225 284.543,182.300 286.079 C 180.375 287.614,178.800 288.955,178.800 289.058 C 178.800 289.530,186.543 283.272,187.161 282.300 C 187.765 281.352,187.488 281.418,186.562 282.443 M216.044 285.227 C 219.472 288.042,221.200 289.331,221.200 289.071 C 221.200 288.809,213.687 282.800,213.360 282.800 C 213.211 282.800,214.418 283.892,216.044 285.227 M176.400 290.870 C 175.410 291.753,175.140 292.101,175.800 291.644 C 177.810 290.251,178.550 289.616,178.370 289.437 C 178.276 289.343,177.389 289.988,176.400 290.870 M221.600 289.429 C 221.600 289.711,222.017 290.079,224.100 291.633 C 225.863 292.949,225.368 292.234,223.400 290.621 C 222.410 289.810,221.600 289.274,221.600 289.429 M171.902 294.759 C 170.688 296.070,169.301 297.741,168.819 298.471 C 168.191 299.423,168.376 299.296,169.471 298.024 C 170.312 297.048,171.782 295.460,172.739 294.496 C 173.695 293.532,174.394 292.661,174.293 292.560 C 174.192 292.458,173.116 293.448,171.902 294.759 M226.973 294.200 C 227.743 294.970,228.505 295.600,228.665 295.600 C 228.826 295.600,228.346 294.970,227.600 294.200 C 226.854 293.430,226.092 292.800,225.908 292.800 C 225.724 292.800,226.203 293.430,226.973 294.200 M230.637 298.365 C 231.647 299.666,233.262 302.231,234.225 304.065 C 235.189 305.899,235.982 307.263,235.988 307.096 C 236.040 305.746,229.951 296.000,229.056 296.000 C 228.916 296.000,229.627 297.064,230.637 298.365 M166.214 302.235 C 165.841 302.804,165.627 303.361,165.739 303.472 C 165.850 303.583,166.229 303.118,166.581 302.437 C 167.359 300.933,167.144 300.815,166.214 302.235 M163.823 307.006 C 162.915 309.180,163.076 309.711,164.016 307.640 C 164.455 306.673,164.732 305.798,164.631 305.697 C 164.530 305.596,164.166 306.185,163.823 307.006 M236.459 308.892 C 237.171 311.175,237.691 313.319,238.232 316.200 L 238.757 319.000 238.542 316.600 C 238.424 315.280,238.056 313.210,237.724 312.000 C 237.392 310.790,237.027 309.392,236.912 308.894 C 236.798 308.396,236.558 307.897,236.378 307.786 C 236.198 307.675,236.235 308.173,236.459 308.892 M162.275 311.670 C 161.385 314.832,160.704 320.300,160.889 322.800 C 161.049 324.953,161.054 324.940,161.133 322.200 C 161.218 319.273,162.069 313.579,162.775 311.226 C 163.001 310.471,163.116 309.783,163.030 309.697 C 162.944 309.611,162.604 310.499,162.275 311.670 M238.931 321.800 C 238.933 323.340,239.005 323.921,239.092 323.091 C 239.179 322.261,239.177 321.001,239.089 320.291 C 239.000 319.581,238.929 320.260,238.931 321.800 M161.456 327.400 C 162.240 336.086,168.826 347.648,175.748 352.490 C 176.437 352.971,175.542 351.985,173.761 350.298 C 167.363 344.241,163.342 336.759,161.776 328.000 C 161.267 325.154,161.251 325.123,161.456 327.400 M238.196 327.700 C 238.041 329.075,237.290 332.000,236.527 334.200 C 234.397 340.347,234.260 340.926,234.556 342.504 C 234.819 343.908,236.508 346.400,237.196 346.400 C 237.375 346.400,237.004 345.847,236.373 345.171 C 235.742 344.496,235.103 343.288,234.952 342.487 C 234.660 340.926,234.799 340.341,236.927 334.200 C 238.157 330.652,239.218 325.200,238.679 325.200 C 238.569 325.200,238.351 326.325,238.196 327.700 M177.720 353.903 C 178.974 355.303,188.933 359.986,188.226 358.843 C 188.076 358.599,187.676 358.400,187.337 358.400 C 186.528 358.400,180.630 355.551,178.596 354.177 C 177.434 353.392,177.196 353.318,177.720 353.903 M221.200 354.671 C 220.870 354.802,218.951 355.695,216.935 356.655 C 214.920 357.615,212.996 358.400,212.659 358.400 C 212.323 358.400,211.924 358.599,211.774 358.843 C 211.366 359.503,212.862 358.980,217.000 357.014 C 222.436 354.433,223.930 354.357,226.322 356.540 C 227.023 357.179,227.184 357.223,226.991 356.721 C 226.527 355.511,222.594 354.119,221.200 354.671 M189.600 359.600 C 191.142 360.094,191.964 360.094,191.200 359.600 C 190.870 359.387,190.150 359.227,189.600 359.246 L 188.600 359.280 189.600 359.600 M208.800 359.600 C 208.036 360.094,208.858 360.094,210.400 359.600 L 211.400 359.280 210.400 359.246 C 209.850 359.227,209.130 359.387,208.800 359.600 M193.400 360.423 C 194.280 360.605,195.540 360.743,196.200 360.730 L 197.400 360.705 196.200 360.400 C 195.540 360.232,194.280 360.094,193.400 360.093 L 191.800 360.092 193.400 360.423 M204.200 360.400 C 202.434 360.849,204.445 360.869,206.600 360.423 L 208.200 360.092 206.800 360.093 C 206.030 360.094,204.860 360.232,204.200 360.400 " stroke="none" fill="#813f48" fill-rule="evenodd"></path><path id="path5" d="M202.300 11.882 C 202.795 11.978,203.605 11.978,204.100 11.882 C 204.595 11.787,204.190 11.709,203.200 11.709 C 202.210 11.709,201.805 11.787,202.300 11.882 M173.775 21.700 L 172.600 23.000 173.900 21.825 C 174.615 21.179,175.200 20.594,175.200 20.525 C 175.200 20.216,174.870 20.488,173.775 21.700 M227.400 23.200 C 228.928 24.740,230.269 26.000,230.379 26.000 C 230.489 26.000,229.328 24.740,227.800 23.200 C 226.272 21.660,224.931 20.400,224.821 20.400 C 224.711 20.400,225.872 21.660,227.400 23.200 M170.575 24.900 L 169.400 26.200 170.700 25.025 C 171.415 24.379,172.000 23.794,172.000 23.725 C 172.000 23.416,171.670 23.688,170.575 24.900 M199.100 27.482 C 199.595 27.578,200.405 27.578,200.900 27.482 C 201.395 27.387,200.990 27.309,200.000 27.309 C 199.010 27.309,198.605 27.387,199.100 27.482 M198.700 39.089 C 199.415 39.178,200.585 39.178,201.300 39.089 C 202.015 39.001,201.430 38.928,200.000 38.928 C 198.570 38.928,197.985 39.001,198.700 39.089 M238.909 47.600 C 238.909 48.590,238.987 48.995,239.082 48.500 C 239.178 48.005,239.178 47.195,239.082 46.700 C 238.987 46.205,238.909 46.610,238.909 47.600 M188.093 49.600 C 188.093 50.370,188.175 50.685,188.276 50.300 C 188.376 49.915,188.376 49.285,188.276 48.900 C 188.175 48.515,188.093 48.830,188.093 49.600 M223.397 162.000 C 223.397 224.590,223.443 250.195,223.500 218.900 C 223.557 187.605,223.557 136.395,223.500 105.100 C 223.443 73.805,223.397 99.410,223.397 162.000 M211.793 92.400 C 211.793 116.490,211.841 126.345,211.900 114.300 C 211.959 102.255,211.959 82.545,211.900 70.500 C 211.841 58.455,211.793 68.310,211.793 92.400 M176.585 69.200 C 176.585 80.090,176.637 84.545,176.700 79.100 C 176.763 73.655,176.763 64.745,176.700 59.300 C 176.637 53.855,176.585 58.310,176.585 69.200 M181.505 93.883 C 182.002 93.979,182.722 93.975,183.105 93.875 C 183.487 93.775,183.080 93.696,182.200 93.701 C 181.320 93.705,181.007 93.787,181.505 93.883 M176.596 195.000 C 176.596 239.440,176.643 257.561,176.700 235.268 C 176.757 212.976,176.757 176.616,176.700 154.468 C 176.643 132.321,176.596 150.560,176.596 195.000 M194.100 136.699 C 197.345 136.766,202.655 136.766,205.900 136.699 C 209.145 136.632,206.490 136.577,200.000 136.577 C 193.510 136.577,190.855 136.632,194.100 136.699 M152.589 275.300 L 149.800 278.200 152.700 275.411 C 155.394 272.820,155.783 272.400,155.489 272.400 C 155.428 272.400,154.123 273.705,152.589 275.300 M246.800 275.000 C 248.217 276.430,249.467 277.600,249.577 277.600 C 249.687 277.600,248.617 276.430,247.200 275.000 C 245.783 273.570,244.533 272.400,244.423 272.400 C 244.313 272.400,245.383 273.570,246.800 275.000 M163.988 286.300 L 161.400 289.000 164.100 286.412 C 166.608 284.007,166.983 283.600,166.688 283.600 C 166.627 283.600,165.412 284.815,163.988 286.300 M236.000 286.600 C 237.195 287.810,238.263 288.800,238.373 288.800 C 238.483 288.800,237.595 287.810,236.400 286.600 C 235.205 285.390,234.137 284.400,234.027 284.400 C 233.917 284.400,234.805 285.390,236.000 286.600 M266.093 316.000 C 266.093 316.770,266.175 317.085,266.276 316.700 C 266.376 316.315,266.376 315.685,266.276 315.300 C 266.175 314.915,266.093 315.230,266.093 316.000 M250.520 319.200 C 250.520 320.410,250.595 320.905,250.687 320.300 C 250.778 319.695,250.778 318.705,250.687 318.100 C 250.595 317.495,250.520 317.990,250.520 319.200 M149.348 322.000 C 149.348 324.310,149.414 325.255,149.495 324.100 C 149.576 322.945,149.576 321.055,149.495 319.900 C 149.414 318.745,149.348 319.690,149.348 322.000 M250.514 324.600 C 250.517 325.700,250.595 326.103,250.687 325.495 C 250.779 324.886,250.777 323.986,250.682 323.495 C 250.587 323.003,250.511 323.500,250.514 324.600 M266.093 327.600 C 266.093 328.370,266.175 328.685,266.276 328.300 C 266.376 327.915,266.376 327.285,266.276 326.900 C 266.175 326.515,266.093 326.830,266.093 327.600 M249.375 366.100 L 248.200 367.400 249.500 366.225 C 250.215 365.579,250.800 364.994,250.800 364.925 C 250.800 364.616,250.470 364.888,249.375 366.100 M198.700 372.689 C 199.415 372.778,200.585 372.778,201.300 372.689 C 202.015 372.601,201.430 372.528,200.000 372.528 C 198.570 372.528,197.985 372.601,198.700 372.689 M193.700 388.276 C 194.085 388.376,194.715 388.376,195.100 388.276 C 195.485 388.175,195.170 388.093,194.400 388.093 C 193.630 388.093,193.315 388.175,193.700 388.276 M204.900 388.276 C 205.285 388.376,205.915 388.376,206.300 388.276 C 206.685 388.175,206.370 388.093,205.600 388.093 C 204.830 388.093,204.515 388.175,204.900 388.276 " stroke="none" fill="#454a5c" fill-rule="evenodd"></path><path id="path6" d="M197.900 11.889 C 198.615 11.978,199.785 11.978,200.500 11.889 C 201.215 11.801,200.630 11.728,199.200 11.728 C 197.770 11.728,197.185 11.801,197.900 11.889 M206.305 12.683 C 206.802 12.779,207.522 12.775,207.905 12.675 C 208.287 12.575,207.880 12.496,207.000 12.501 C 206.120 12.505,205.807 12.587,206.305 12.683 M209.200 13.182 C 209.530 13.405,210.145 13.591,210.567 13.594 C 211.590 13.602,211.271 13.373,209.800 13.044 C 208.924 12.848,208.762 12.885,209.200 13.182 M188.000 13.618 C 187.562 13.915,187.724 13.952,188.600 13.756 C 190.071 13.427,190.390 13.198,189.367 13.206 C 188.945 13.209,188.330 13.395,188.000 13.618 M212.000 13.933 C 212.330 14.136,213.050 14.424,213.600 14.571 C 214.295 14.757,214.417 14.725,214.000 14.467 C 213.670 14.264,212.950 13.976,212.400 13.829 C 211.705 13.643,211.583 13.675,212.000 13.933 M216.000 15.600 C 216.770 16.022,217.580 16.366,217.800 16.366 C 218.020 16.366,217.570 16.022,216.800 15.600 C 216.030 15.178,215.220 14.834,215.000 14.834 C 214.780 14.834,215.230 15.178,216.000 15.600 M180.300 17.029 C 178.805 17.840,178.896 18.178,180.400 17.400 C 181.060 17.059,181.600 16.694,181.600 16.590 C 181.600 16.332,181.557 16.347,180.300 17.029 M219.633 17.364 C 220.246 17.967,224.044 20.394,223.828 20.045 C 223.507 19.526,220.182 17.200,219.761 17.200 C 219.599 17.200,219.542 17.274,219.633 17.364 M176.000 20.049 C 174.606 21.271,174.605 21.272,175.888 20.419 C 176.596 19.948,177.282 19.391,177.412 19.181 C 177.797 18.557,177.477 18.754,176.000 20.049 M169.544 26.300 C 168.275 27.832,167.819 28.542,168.281 28.265 C 168.793 27.958,170.569 25.600,170.289 25.600 C 170.198 25.600,169.863 25.915,169.544 26.300 M231.774 28.800 C 233.673 31.589,233.977 31.857,232.784 29.691 C 232.266 28.750,231.490 27.670,231.059 27.291 C 230.628 26.911,230.950 27.590,231.774 28.800 M195.221 27.579 C 194.846 27.816,195.270 27.865,196.421 27.718 C 197.399 27.592,198.275 27.425,198.367 27.345 C 198.742 27.019,195.755 27.240,195.221 27.579 M201.633 27.345 C 201.725 27.425,202.601 27.592,203.579 27.718 C 204.730 27.865,205.154 27.816,204.779 27.579 C 204.245 27.240,201.258 27.019,201.633 27.345 M166.200 31.200 C 165.859 31.860,165.669 32.400,165.779 32.400 C 165.889 32.400,166.259 31.860,166.600 31.200 C 166.941 30.540,167.131 30.000,167.021 30.000 C 166.911 30.000,166.541 30.540,166.200 31.200 M234.525 33.400 C 235.052 34.500,235.806 36.259,236.200 37.309 C 236.593 38.359,236.992 39.141,237.086 39.048 C 237.326 38.808,234.900 33.075,234.170 32.159 C 233.838 31.742,233.997 32.300,234.525 33.400 M183.186 34.300 L 181.000 36.600 183.300 34.414 C 184.565 33.211,185.600 32.176,185.600 32.114 C 185.600 31.817,185.218 32.163,183.186 34.300 M216.400 34.200 C 217.595 35.410,218.663 36.400,218.773 36.400 C 218.883 36.400,217.995 35.410,216.800 34.200 C 215.605 32.990,214.537 32.000,214.427 32.000 C 214.317 32.000,215.205 32.990,216.400 34.200 M162.649 39.015 C 162.512 39.373,162.415 39.966,162.434 40.333 C 162.453 40.700,162.627 40.469,162.821 39.820 C 163.198 38.558,163.065 37.933,162.649 39.015 M196.200 39.600 C 195.696 39.817,195.622 39.944,196.000 39.944 C 196.330 39.944,196.960 39.789,197.400 39.600 C 197.904 39.383,197.978 39.256,197.600 39.256 C 197.270 39.256,196.640 39.411,196.200 39.600 M202.600 39.600 C 203.040 39.789,203.670 39.944,204.000 39.944 C 204.378 39.944,204.304 39.817,203.800 39.600 C 203.360 39.411,202.730 39.256,202.400 39.256 C 202.022 39.256,202.096 39.383,202.600 39.600 M237.440 40.800 C 238.296 45.460,238.297 45.466,238.344 44.200 C 238.368 43.540,238.117 42.190,237.785 41.200 C 237.297 39.740,237.232 39.664,237.440 40.800 M205.600 40.678 C 206.877 41.572,209.215 43.908,210.128 45.200 C 210.782 46.125,210.781 46.100,210.117 44.863 C 209.321 43.379,206.977 41.107,205.535 40.421 C 204.668 40.009,204.672 40.028,205.600 40.678 M223.038 46.600 C 223.370 48.584,223.602 48.904,223.594 47.367 C 223.591 46.725,223.404 45.930,223.179 45.600 C 222.886 45.170,222.846 45.454,223.038 46.600 M176.649 46.215 C 176.512 46.573,176.424 47.526,176.453 48.333 C 176.501 49.644,176.538 49.587,176.795 47.800 C 177.103 45.671,177.055 45.158,176.649 46.215 M160.899 157.126 C 160.827 237.152,160.679 267.089,160.352 267.726 C 160.106 268.207,159.341 269.230,158.652 270.000 L 157.400 271.400 158.873 270.047 C 159.683 269.304,160.540 268.224,160.777 267.647 C 161.081 266.906,161.177 234.542,161.103 157.000 L 160.999 47.400 160.899 157.126 M238.898 122.120 C 238.792 201.342,238.656 196.216,240.914 198.325 C 241.869 199.217,245.847 200.723,245.419 200.031 C 245.303 199.844,244.595 199.576,243.845 199.435 C 242.318 199.148,240.647 197.977,239.897 196.669 C 239.508 195.988,239.356 179.886,239.198 122.400 L 238.996 49.000 238.898 122.120 M188.096 70.067 C 188.043 80.774,187.896 89.864,187.770 90.267 C 187.562 90.927,187.583 90.933,187.974 90.329 C 188.274 89.863,188.375 83.662,188.300 70.129 L 188.192 50.600 188.096 70.067 M177.200 91.619 C 177.200 92.205,179.948 94.086,180.487 93.869 C 180.826 93.733,180.777 93.652,180.342 93.632 C 179.981 93.614,179.126 93.078,178.442 92.440 C 177.759 91.801,177.200 91.432,177.200 91.619 M186.175 92.500 L 185.000 93.800 186.300 92.625 C 187.512 91.530,187.784 91.200,187.475 91.200 C 187.406 91.200,186.821 91.785,186.175 92.500 M181.700 109.076 C 182.085 109.176,182.715 109.176,183.100 109.076 C 183.485 108.975,183.170 108.893,182.400 108.893 C 181.630 108.893,181.315 108.975,181.700 109.076 M188.176 124.400 C 188.176 130.670,188.232 133.235,188.299 130.100 C 188.367 126.965,188.367 121.835,188.299 118.700 C 188.232 115.565,188.176 118.130,188.176 124.400 M194.100 136.299 C 197.345 136.366,202.655 136.366,205.900 136.299 C 209.145 136.232,206.490 136.177,200.000 136.177 C 193.510 136.177,190.855 136.232,194.100 136.299 M243.200 214.400 C 242.405 214.914,243.404 214.914,244.600 214.400 L 245.400 214.056 244.600 214.034 C 244.160 214.022,243.530 214.187,243.200 214.400 M240.724 215.900 C 238.757 218.009,238.800 217.401,238.800 242.794 C 238.800 269.171,238.684 267.883,241.264 270.199 L 242.600 271.398 241.348 269.999 C 239.118 267.507,239.200 268.543,239.200 242.806 C 239.200 216.596,239.131 217.413,241.489 215.654 C 242.100 215.198,242.409 214.820,242.175 214.813 C 241.941 214.806,241.288 215.295,240.724 215.900 M153.191 275.100 L 149.800 278.600 153.388 275.200 C 155.361 273.330,157.056 271.755,157.155 271.700 C 157.253 271.645,157.164 271.600,156.958 271.600 C 156.751 271.600,155.056 273.175,153.191 275.100 M243.600 272.038 C 243.600 272.337,249.707 278.426,249.857 278.277 C 249.922 278.211,248.541 276.731,246.788 274.988 C 245.035 273.245,243.600 271.918,243.600 272.038 M225.600 277.318 C 225.600 277.420,226.447 278.197,227.481 279.045 C 228.516 279.893,229.234 280.378,229.076 280.123 C 228.740 279.579,225.600 277.045,225.600 277.318 M251.221 280.335 C 253.706 283.463,254.469 284.237,253.042 282.180 C 252.271 281.069,251.236 279.809,250.742 279.380 C 250.247 278.951,250.463 279.381,251.221 280.335 M147.521 281.300 C 145.493 283.807,142.977 287.600,143.344 287.600 C 143.449 287.600,143.951 286.927,144.460 286.104 C 144.968 285.281,146.248 283.481,147.303 282.104 C 149.468 279.279,149.625 278.699,147.521 281.300 M168.351 282.034 L 166.600 283.668 168.500 282.186 C 170.236 280.832,170.659 280.400,170.251 280.400 C 170.170 280.400,169.315 281.135,168.351 282.034 M229.600 280.488 C 229.600 280.566,230.455 281.333,231.500 282.192 C 232.545 283.051,233.040 283.340,232.600 282.834 C 231.822 281.939,229.600 280.202,229.600 280.488 M164.185 285.700 L 162.200 287.800 164.300 285.815 C 165.455 284.723,166.400 283.778,166.400 283.715 C 166.400 283.417,166.029 283.749,164.185 285.700 M233.641 283.900 C 233.663 284.065,234.608 285.003,235.741 285.985 L 237.800 287.771 235.815 285.685 C 233.786 283.554,233.570 283.376,233.641 283.900 M159.123 291.500 C 158.126 292.662,155.913 296.047,156.061 296.184 C 156.138 296.254,157.043 295.071,158.074 293.556 C 159.938 290.815,160.270 290.163,159.123 291.500 M241.200 292.117 C 241.200 292.286,242.010 293.633,243.000 295.108 C 243.990 296.584,244.800 297.653,244.800 297.483 C 244.800 297.314,243.990 295.967,243.000 294.492 C 242.010 293.016,241.200 291.947,241.200 292.117 M245.478 299.395 C 245.844 300.162,246.214 300.719,246.301 300.632 C 246.484 300.449,245.270 298.000,244.996 298.000 C 244.895 298.000,245.112 298.628,245.478 299.395 M247.113 303.019 C 247.484 304.020,247.839 304.682,247.903 304.491 C 248.031 304.106,246.893 301.200,246.614 301.200 C 246.517 301.200,246.742 302.019,247.113 303.019 M136.200 303.200 C 136.050 303.673,136.017 304.150,136.127 304.260 C 136.237 304.370,136.450 304.073,136.600 303.600 C 136.750 303.127,136.783 302.650,136.673 302.540 C 136.563 302.430,136.350 302.727,136.200 303.200 M135.429 306.229 C 135.281 306.815,135.238 307.372,135.332 307.466 C 135.427 307.560,135.624 307.158,135.771 306.571 C 135.919 305.985,135.962 305.428,135.868 305.334 C 135.773 305.240,135.576 305.642,135.429 306.229 M248.248 306.200 C 248.391 306.860,248.666 307.670,248.859 308.000 C 249.084 308.384,249.118 308.168,248.952 307.400 C 248.809 306.740,248.534 305.930,248.341 305.600 C 248.116 305.216,248.082 305.432,248.248 306.200 M264.056 306.000 C 264.056 306.330,264.211 306.960,264.400 307.400 C 264.617 307.904,264.744 307.978,264.744 307.600 C 264.744 307.270,264.589 306.640,264.400 306.200 C 264.183 305.696,264.056 305.622,264.056 306.000 M151.029 307.429 C 150.881 308.015,150.838 308.572,150.932 308.666 C 151.027 308.760,151.224 308.358,151.371 307.771 C 151.519 307.185,151.562 306.628,151.468 306.534 C 151.373 306.440,151.176 306.842,151.029 307.429 M134.622 310.222 C 134.472 311.025,134.428 311.762,134.526 311.860 C 134.624 311.957,134.827 311.381,134.978 310.578 C 135.128 309.775,135.172 309.038,135.074 308.940 C 134.976 308.843,134.773 309.419,134.622 310.222 M249.280 309.400 C 249.280 309.840,249.424 310.650,249.600 311.200 C 249.854 311.992,249.920 312.033,249.920 311.400 C 249.920 310.960,249.776 310.150,249.600 309.600 C 249.346 308.808,249.280 308.767,249.280 309.400 M264.887 309.800 C 264.891 310.240,265.032 311.140,265.200 311.800 C 265.474 312.878,265.506 312.898,265.513 312.000 C 265.517 311.450,265.376 310.550,265.200 310.000 C 264.949 309.216,264.881 309.173,264.887 309.800 M150.229 310.629 C 150.081 311.215,150.038 311.772,150.132 311.866 C 150.227 311.960,150.424 311.558,150.571 310.971 C 150.719 310.385,150.762 309.828,150.668 309.734 C 150.573 309.640,150.376 310.042,150.229 310.629 M250.070 313.400 C 250.057 313.840,250.195 314.920,250.377 315.800 C 250.655 317.145,250.708 317.209,250.707 316.200 C 250.705 314.799,250.108 312.170,250.070 313.400 M149.385 315.385 C 149.230 316.623,149.190 317.723,149.295 317.829 C 149.401 317.934,149.607 317.001,149.754 315.754 C 149.900 314.507,149.941 313.407,149.843 313.310 C 149.746 313.212,149.539 314.146,149.385 315.385 M133.859 315.700 C 133.536 318.390,133.579 326.063,133.930 328.400 C 134.078 329.390,134.200 326.465,134.200 321.900 C 134.200 312.643,134.208 312.794,133.859 315.700 M265.800 322.000 C 265.800 326.296,265.919 328.902,266.065 327.800 C 266.411 325.188,266.414 318.289,266.070 316.000 C 265.922 315.010,265.800 317.710,265.800 322.000 M149.293 327.000 C 149.294 327.660,149.432 328.740,149.600 329.400 C 150.023 331.063,150.042 329.426,149.623 327.400 C 149.345 326.055,149.292 325.991,149.293 327.000 M250.215 328.615 C 250.061 329.854,250.017 330.950,250.119 331.052 C 250.220 331.154,250.430 330.223,250.585 328.985 C 250.739 327.746,250.783 326.650,250.681 326.548 C 250.580 326.446,250.370 327.377,250.215 328.615 M265.040 332.840 C 264.893 333.757,264.852 334.585,264.947 334.680 C 265.042 334.776,265.246 334.110,265.400 333.200 C 265.554 332.290,265.596 331.462,265.493 331.360 C 265.390 331.257,265.187 331.923,265.040 332.840 M150.068 332.200 C 150.062 332.640,150.211 333.360,150.400 333.800 C 150.838 334.819,150.838 333.768,150.400 332.400 C 150.143 331.596,150.077 331.557,150.068 332.200 M134.480 332.600 C 134.480 333.040,134.624 333.850,134.800 334.400 C 135.054 335.192,135.120 335.233,135.120 334.600 C 135.120 334.160,134.976 333.350,134.800 332.800 C 134.546 332.008,134.480 331.967,134.480 332.600 M249.400 333.200 C 249.248 333.891,249.207 334.541,249.309 334.642 C 249.411 334.744,249.609 334.253,249.750 333.550 C 249.891 332.847,249.931 332.198,249.841 332.108 C 249.750 332.017,249.552 332.509,249.400 333.200 M248.629 336.229 C 248.481 336.815,248.438 337.372,248.532 337.466 C 248.627 337.560,248.824 337.158,248.971 336.571 C 249.119 335.985,249.162 335.428,249.068 335.334 C 248.973 335.240,248.776 335.642,248.629 336.229 M264.273 336.553 C 264.123 336.945,264.011 337.566,264.025 337.933 C 264.042 338.375,264.181 338.274,264.437 337.634 C 264.649 337.103,264.761 336.482,264.685 336.254 C 264.609 336.027,264.424 336.161,264.273 336.553 M247.074 340.674 C 246.490 342.144,246.078 343.411,246.157 343.491 C 246.236 343.570,246.781 342.435,247.368 340.968 C 247.955 339.502,248.368 338.235,248.285 338.152 C 248.202 338.069,247.657 339.204,247.074 340.674 M153.600 342.947 C 153.600 343.395,155.475 346.924,156.179 347.800 C 156.532 348.240,156.156 347.340,155.342 345.800 C 153.722 342.735,153.600 342.534,153.600 342.947 M244.600 345.265 C 243.632 346.268,243.572 346.419,244.291 346.045 C 244.781 345.790,245.372 345.226,245.605 344.791 C 246.175 343.726,246.012 343.803,244.600 345.265 M239.300 347.087 C 239.905 347.178,240.895 347.178,241.500 347.087 C 242.105 346.995,241.610 346.920,240.400 346.920 C 239.190 346.920,238.695 346.995,239.300 347.087 M159.296 352.595 C 159.793 353.362,160.344 353.992,160.520 353.995 C 160.697 353.998,160.360 353.370,159.773 352.600 C 158.400 350.800,158.132 350.797,159.296 352.595 M257.414 354.235 C 257.041 354.804,256.827 355.361,256.939 355.472 C 257.050 355.583,257.429 355.118,257.781 354.437 C 258.559 352.933,258.344 352.815,257.414 354.235 M164.000 357.800 C 165.860 359.670,167.472 361.200,167.582 361.200 C 167.692 361.200,166.260 359.670,164.400 357.800 C 162.540 355.930,160.928 354.400,160.818 354.400 C 160.708 354.400,162.140 355.930,164.000 357.800 M142.749 355.400 C 142.965 355.840,143.434 356.560,143.793 357.000 L 144.444 357.800 144.051 357.000 C 143.835 356.560,143.366 355.840,143.007 355.400 L 142.356 354.600 142.749 355.400 M254.998 358.300 C 254.164 359.565,252.969 361.256,252.341 362.058 C 251.714 362.859,251.200 363.666,251.200 363.849 C 251.200 364.219,255.093 358.966,256.168 357.147 C 257.352 355.143,256.572 355.912,254.998 358.300 M228.120 360.800 C 228.120 362.010,228.195 362.505,228.287 361.900 C 228.378 361.295,228.378 360.305,228.287 359.700 C 228.195 359.095,228.120 359.590,228.120 360.800 M146.336 360.800 C 146.980 361.790,148.260 363.410,149.181 364.400 C 150.759 366.096,150.745 366.059,148.928 363.767 C 147.868 362.428,146.587 360.808,146.082 360.167 C 145.578 359.525,145.692 359.810,146.336 360.800 M168.400 361.725 C 168.400 361.824,169.061 362.409,169.868 363.025 C 170.676 363.641,171.211 363.941,171.056 363.691 C 170.740 363.179,168.400 361.447,168.400 361.725 M226.238 364.895 C 224.762 366.435,224.928 366.629,226.537 365.244 C 227.173 364.696,228.240 363.138,227.914 363.233 C 227.851 363.252,227.097 363.999,226.238 364.895 M248.339 366.700 C 247.131 367.965,245.211 369.862,244.072 370.916 C 241.089 373.675,241.516 373.682,244.605 370.925 C 246.947 368.835,251.083 364.400,250.690 364.400 C 250.604 364.400,249.546 365.435,248.339 366.700 M172.800 364.979 C 172.800 365.089,173.340 365.459,174.000 365.800 C 174.660 366.141,175.200 366.331,175.200 366.221 C 175.200 366.111,174.660 365.741,174.000 365.400 C 173.340 365.059,172.800 364.869,172.800 364.979 M153.000 368.800 C 154.306 370.120,155.454 371.200,155.551 371.200 C 155.891 371.200,151.395 366.490,151.013 366.445 C 150.799 366.420,151.694 367.480,153.000 368.800 M157.087 372.409 C 157.795 373.151,158.442 373.678,158.525 373.579 C 158.608 373.481,158.029 372.873,157.238 372.229 L 155.800 371.058 157.087 372.409 M188.400 371.600 C 188.730 371.813,189.450 371.973,190.000 371.954 L 191.000 371.920 190.000 371.600 C 188.458 371.106,187.636 371.106,188.400 371.600 M210.000 371.600 C 209.196 371.857,209.157 371.923,209.800 371.932 C 210.240 371.938,210.960 371.789,211.400 371.600 C 212.419 371.162,211.368 371.162,210.000 371.600 M192.800 372.403 C 193.789 372.717,197.888 372.934,197.567 372.656 C 197.475 372.577,196.140 372.416,194.600 372.299 C 192.973 372.175,192.219 372.219,192.800 372.403 M204.400 372.400 L 202.200 372.670 204.200 372.707 C 205.300 372.727,206.560 372.589,207.000 372.400 C 207.902 372.012,207.562 372.012,204.400 372.400 M239.985 374.432 L 238.600 375.663 239.888 374.813 C 241.030 374.059,241.893 373.200,241.508 373.200 C 241.432 373.200,240.747 373.754,239.985 374.432 M160.400 374.959 C 160.400 375.171,163.977 377.746,165.127 378.361 C 166.855 379.286,165.946 378.482,163.200 376.655 C 161.660 375.631,160.400 374.868,160.400 374.959 M236.881 376.572 C 235.023 377.885,234.762 378.261,236.331 377.362 C 237.063 376.943,237.850 376.375,238.080 376.100 C 238.671 375.393,238.393 375.502,236.881 376.572 M232.300 379.429 C 230.805 380.240,230.896 380.578,232.400 379.800 C 233.060 379.459,233.600 379.094,233.600 378.990 C 233.600 378.732,233.557 378.747,232.300 379.429 M221.000 384.418 C 219.900 384.830,219.360 385.161,219.800 385.154 C 220.240 385.147,221.320 384.807,222.200 384.400 C 224.264 383.445,223.573 383.455,221.000 384.418 M181.200 385.582 C 181.530 385.805,182.145 385.991,182.567 385.994 C 183.590 386.002,183.271 385.773,181.800 385.444 C 180.924 385.248,180.762 385.285,181.200 385.582 M217.200 385.600 C 216.376 385.864,216.341 385.926,217.000 385.954 C 217.440 385.973,218.070 385.813,218.400 385.600 C 219.101 385.147,218.614 385.147,217.200 385.600 M184.200 386.381 C 184.968 386.729,187.110 386.956,186.767 386.653 C 186.675 386.572,185.880 386.396,185.000 386.262 C 183.885 386.093,183.642 386.129,184.200 386.381 M189.505 387.483 C 190.002 387.579,190.722 387.575,191.105 387.475 C 191.487 387.375,191.080 387.296,190.200 387.301 C 189.320 387.305,189.007 387.387,189.505 387.483 M208.300 387.482 C 208.795 387.578,209.605 387.578,210.100 387.482 C 210.595 387.387,210.190 387.309,209.200 387.309 C 208.210 387.309,207.805 387.387,208.300 387.482 M192.900 387.876 C 193.285 387.976,193.915 387.976,194.300 387.876 C 194.685 387.775,194.370 387.693,193.600 387.693 C 192.830 387.693,192.515 387.775,192.900 387.876 M197.700 388.296 C 198.965 388.375,201.035 388.375,202.300 388.296 C 203.565 388.216,202.530 388.151,200.000 388.151 C 197.470 388.151,196.435 388.216,197.700 388.296 " stroke="none" fill="#747c7c" fill-rule="evenodd"></path><path id="path7" d="M192.600 12.000 C 191.581 12.438,192.632 12.438,194.000 12.000 C 194.804 11.743,194.843 11.677,194.200 11.668 C 193.760 11.662,193.040 11.811,192.600 12.000 M205.600 12.000 C 206.968 12.438,208.019 12.438,207.000 12.000 C 206.560 11.811,205.840 11.662,205.400 11.668 C 204.757 11.677,204.796 11.743,205.600 12.000 M218.600 16.196 C 219.494 16.939,222.028 18.309,221.400 17.710 C 221.180 17.500,220.280 16.924,219.400 16.430 C 218.520 15.935,218.160 15.830,218.600 16.196 M171.978 23.100 L 170.600 24.600 172.100 23.222 C 172.925 22.463,173.600 21.788,173.600 21.722 C 173.600 21.416,173.262 21.704,171.978 23.100 M227.600 23.000 C 228.346 23.770,229.047 24.400,229.157 24.400 C 229.267 24.400,228.746 23.770,228.000 23.000 C 227.254 22.230,226.553 21.600,226.443 21.600 C 226.333 21.600,226.854 22.230,227.600 23.000 M195.800 28.000 C 194.711 28.277,194.693 28.307,195.600 28.325 C 196.150 28.335,196.960 28.189,197.400 28.000 C 198.386 27.576,197.466 27.576,195.800 28.000 M202.600 27.981 C 203.368 28.329,205.510 28.556,205.167 28.253 C 205.075 28.172,204.280 27.996,203.400 27.862 C 202.285 27.693,202.042 27.729,202.600 27.981 M234.293 31.966 C 235.122 33.487,235.866 34.666,235.946 34.586 C 236.121 34.413,233.243 29.200,232.973 29.200 C 232.870 29.200,233.463 30.445,234.293 31.966 M210.400 30.179 C 210.400 30.289,210.940 30.659,211.600 31.000 C 212.260 31.341,212.800 31.531,212.800 31.421 C 212.800 31.311,212.260 30.941,211.600 30.600 C 210.940 30.259,210.400 30.069,210.400 30.179 M215.200 33.325 C 215.200 33.394,215.785 33.979,216.500 34.625 L 217.800 35.800 216.625 34.500 C 215.530 33.288,215.200 33.016,215.200 33.325 M161.049 43.815 C 160.912 44.173,160.815 44.766,160.834 45.133 C 160.853 45.500,161.027 45.269,161.221 44.620 C 161.598 43.358,161.465 42.733,161.049 43.815 M238.468 43.600 C 238.488 44.639,239.118 46.346,239.132 45.400 C 239.138 44.960,238.989 44.240,238.800 43.800 C 238.589 43.310,238.461 43.232,238.468 43.600 M177.050 46.850 C 176.717 48.517,177.040 48.840,177.400 47.200 C 177.552 46.509,177.593 45.859,177.491 45.758 C 177.389 45.656,177.191 46.147,177.050 46.850 M222.468 46.200 C 222.462 46.640,222.611 47.360,222.800 47.800 C 223.238 48.819,223.238 47.768,222.800 46.400 C 222.543 45.596,222.477 45.557,222.468 46.200 M178.571 110.903 L 177.400 112.197 178.600 111.199 C 179.260 110.649,179.875 110.155,179.967 110.100 C 180.058 110.045,180.045 109.912,179.938 109.804 C 179.830 109.696,179.215 110.191,178.571 110.903 M184.600 109.857 C 186.637 111.664,187.387 112.191,186.602 111.263 C 186.166 110.748,185.447 110.141,185.004 109.914 C 184.562 109.687,184.380 109.662,184.600 109.857 M152.388 275.100 L 149.800 277.800 152.500 275.212 C 153.985 273.788,155.200 272.573,155.200 272.512 C 155.200 272.217,154.793 272.592,152.388 275.100 M246.800 274.600 C 247.995 275.810,249.063 276.800,249.173 276.800 C 249.283 276.800,248.395 275.810,247.200 274.600 C 246.005 273.390,244.937 272.400,244.827 272.400 C 244.717 272.400,245.605 273.390,246.800 274.600 M249.600 277.464 C 249.600 277.682,250.095 278.297,250.700 278.830 L 251.800 279.800 250.800 278.600 C 250.250 277.940,249.755 277.325,249.700 277.233 C 249.645 277.142,249.600 277.245,249.600 277.464 M148.801 278.998 C 148.286 279.548,147.939 280.064,148.032 280.146 C 148.124 280.228,148.619 279.778,149.130 279.147 C 150.276 277.735,150.074 277.644,148.801 278.998 M167.365 283.500 C 166.035 284.765,165.589 285.247,166.373 284.572 C 167.158 283.896,168.399 282.861,169.131 282.272 C 169.863 281.682,170.309 281.200,170.122 281.200 C 169.936 281.200,168.695 282.235,167.365 283.500 M230.869 282.272 C 231.601 282.861,232.842 283.896,233.627 284.572 C 234.411 285.247,233.965 284.765,232.635 283.500 C 231.305 282.235,230.064 281.200,229.878 281.200 C 229.691 281.200,230.137 281.682,230.869 282.272 M263.844 303.400 C 264.173 304.871,264.402 305.190,264.394 304.167 C 264.391 303.745,264.205 303.130,263.982 302.800 C 263.685 302.362,263.648 302.524,263.844 303.400 M135.049 305.815 C 134.912 306.173,134.818 306.856,134.841 307.333 C 134.867 307.881,135.003 307.686,135.210 306.803 C 135.560 305.316,135.465 304.733,135.049 305.815 M264.658 306.400 C 264.975 308.125,265.202 308.451,265.194 307.167 C 265.191 306.635,265.011 305.930,264.794 305.600 C 264.518 305.178,264.477 305.415,264.658 306.400 M134.256 309.284 C 134.121 309.788,134.030 310.740,134.053 311.400 C 134.081 312.228,134.197 311.984,134.426 310.613 C 134.776 308.523,134.674 307.726,134.256 309.284 M151.049 309.015 C 150.912 309.373,150.815 309.966,150.834 310.333 C 150.853 310.700,151.027 310.469,151.221 309.820 C 151.598 308.558,151.465 307.933,151.049 309.015 M248.644 309.400 C 248.973 310.871,249.202 311.190,249.194 310.167 C 249.191 309.745,249.005 309.130,248.782 308.800 C 248.485 308.362,248.448 308.524,248.644 309.400 M265.701 311.400 C 265.705 312.280,265.787 312.593,265.883 312.095 C 265.979 311.598,265.975 310.878,265.875 310.495 C 265.775 310.113,265.696 310.520,265.701 311.400 M150.101 314.200 C 150.105 315.080,150.187 315.393,150.283 314.895 C 150.379 314.398,150.375 313.678,150.275 313.295 C 150.175 312.913,150.096 313.320,150.101 314.200 M249.701 314.200 C 249.705 315.080,249.787 315.393,249.883 314.895 C 249.979 314.398,249.975 313.678,249.875 313.295 C 249.775 312.913,249.696 313.320,249.701 314.200 M133.362 321.800 C 133.362 325.320,133.424 326.706,133.498 324.881 C 133.572 323.056,133.572 320.176,133.497 318.481 C 133.422 316.786,133.361 318.280,133.362 321.800 M250.093 317.600 C 250.093 318.370,250.175 318.685,250.276 318.300 C 250.376 317.915,250.376 317.285,250.276 316.900 C 250.175 316.515,250.093 316.830,250.093 317.600 M266.559 322.000 C 266.559 325.190,266.621 326.495,266.697 324.900 C 266.773 323.305,266.773 320.695,266.697 319.100 C 266.621 317.505,266.559 318.810,266.559 322.000 M149.693 318.000 C 149.693 318.770,149.775 319.085,149.876 318.700 C 149.976 318.315,149.976 317.685,149.876 317.300 C 149.775 316.915,149.693 317.230,149.693 318.000 M149.693 326.000 C 149.693 326.770,149.775 327.085,149.876 326.700 C 149.976 326.315,149.976 325.685,149.876 325.300 C 149.775 324.915,149.693 325.230,149.693 326.000 M250.093 326.000 C 250.093 326.770,250.175 327.085,250.276 326.700 C 250.376 326.315,250.376 325.685,250.276 325.300 C 250.175 324.915,250.093 325.230,250.093 326.000 M150.101 329.400 C 150.105 330.280,150.187 330.593,150.283 330.095 C 150.379 329.598,150.375 328.878,150.275 328.495 C 150.175 328.113,150.096 328.520,150.101 329.400 M249.659 329.400 C 249.620 330.060,249.496 331.050,249.383 331.600 L 249.177 332.600 249.608 331.614 C 249.844 331.072,249.968 330.082,249.883 329.414 L 249.728 328.200 249.659 329.400 M265.693 332.400 C 265.693 333.170,265.775 333.485,265.876 333.100 C 265.976 332.715,265.976 332.085,265.876 331.700 C 265.775 331.315,265.693 331.630,265.693 332.400 M134.093 332.800 C 134.093 333.570,134.175 333.885,134.276 333.500 C 134.376 333.115,134.376 332.485,134.276 332.100 C 134.175 331.715,134.093 332.030,134.093 332.800 M134.806 336.833 C 134.809 337.365,134.989 338.070,135.206 338.400 C 135.482 338.822,135.523 338.585,135.342 337.600 C 135.025 335.875,134.798 335.549,134.806 336.833 M135.606 339.833 C 135.609 340.255,135.795 340.870,136.018 341.200 C 136.315 341.638,136.352 341.476,136.156 340.600 C 135.827 339.129,135.598 338.810,135.606 339.833 M264.046 339.667 C 264.021 340.034,263.896 340.664,263.770 341.067 C 263.552 341.762,263.563 341.763,263.997 341.087 C 264.248 340.696,264.373 340.066,264.273 339.687 C 264.111 339.068,264.088 339.066,264.046 339.667 M163.800 357.200 C 164.883 358.300,165.860 359.200,165.970 359.200 C 166.080 359.200,165.283 358.300,164.200 357.200 C 163.117 356.100,162.140 355.200,162.030 355.200 C 161.920 355.200,162.717 356.100,163.800 357.200 M148.694 364.600 C 149.372 365.480,150.523 366.740,151.253 367.400 C 152.024 368.097,151.761 367.677,150.627 366.400 C 147.900 363.329,147.252 362.726,148.694 364.600 M246.895 368.867 C 244.857 370.878,243.247 372.580,243.316 372.649 C 243.385 372.718,245.138 371.070,247.213 368.987 C 249.287 366.904,250.898 365.202,250.792 365.205 C 250.686 365.208,248.933 366.856,246.895 368.867 M155.000 371.200 C 155.859 372.080,156.652 372.800,156.762 372.800 C 156.872 372.800,156.259 372.080,155.400 371.200 C 154.541 370.320,153.748 369.600,153.638 369.600 C 153.528 369.600,154.141 370.320,155.000 371.200 M188.033 370.944 C 188.125 371.023,188.740 371.208,189.400 371.356 C 190.276 371.552,190.438 371.515,190.000 371.218 C 189.460 370.853,187.632 370.598,188.033 370.944 M193.800 372.023 C 195.826 372.442,197.463 372.423,195.800 372.000 C 195.140 371.832,194.060 371.694,193.400 371.693 C 192.391 371.692,192.455 371.745,193.800 372.023 M204.000 372.013 C 203.354 372.229,203.780 372.266,205.200 372.119 C 206.410 371.994,207.475 371.826,207.567 371.746 C 207.887 371.465,204.991 371.683,204.000 372.013 M233.800 379.200 C 233.140 379.637,232.780 379.992,233.000 379.988 C 233.401 379.982,235.576 378.423,235.200 378.412 C 235.090 378.408,234.460 378.763,233.800 379.200 M167.600 380.184 C 167.600 380.294,168.320 380.751,169.200 381.200 C 170.080 381.649,170.800 381.926,170.800 381.816 C 170.800 381.706,170.080 381.249,169.200 380.800 C 168.320 380.351,167.600 380.074,167.600 380.184 M229.200 381.600 C 228.430 382.022,227.944 382.374,228.120 382.383 C 228.544 382.405,230.800 381.232,230.800 380.990 C 230.800 380.728,230.777 380.737,229.200 381.600 M212.800 387.200 C 211.976 387.464,211.941 387.526,212.600 387.554 C 213.040 387.573,213.670 387.413,214.000 387.200 C 214.701 386.747,214.214 386.747,212.800 387.200 M190.400 388.000 C 190.950 388.176,191.850 388.317,192.400 388.313 C 193.298 388.306,193.278 388.274,192.200 388.000 C 190.508 387.569,189.056 387.569,190.400 388.000 M207.800 388.000 C 206.711 388.277,206.693 388.307,207.600 388.325 C 208.150 388.335,208.960 388.189,209.400 388.000 C 210.386 387.576,209.466 387.576,207.800 388.000 " stroke="none" fill="#343438" fill-rule="evenodd"></path><path id="path8" d="M188.187 148.094 C 188.081 148.372,188.041 177.940,188.099 213.800 L 188.202 279.000 188.301 213.500 L 188.400 148.000 199.999 148.000 L 211.598 148.000 211.701 213.700 L 211.804 279.400 211.802 213.600 L 211.800 147.800 200.090 147.694 C 190.937 147.611,188.338 147.698,188.187 148.094 M187.172 280.891 C 186.842 281.637,185.164 283.339,183.200 284.920 C 179.143 288.187,179.087 288.232,176.810 290.006 C 174.620 291.712,173.866 292.400,174.188 292.400 C 175.330 292.400,187.364 281.863,187.780 280.500 C 188.183 279.178,187.831 279.404,187.172 280.891 M212.019 279.740 C 211.944 281.065,213.937 283.145,219.627 287.682 C 223.132 290.478,226.000 292.670,226.000 292.554 C 226.000 292.276,225.359 291.695,223.190 290.006 C 220.864 288.194,220.790 288.135,216.800 284.912 C 214.893 283.372,213.101 281.559,212.719 280.783 C 212.345 280.022,212.030 279.553,212.019 279.740 M171.335 294.900 C 169.586 296.760,166.852 300.340,166.166 301.666 C 165.223 303.490,165.806 302.973,167.257 300.700 C 167.994 299.545,169.547 297.475,170.709 296.100 C 172.992 293.397,173.297 292.813,171.335 294.900 M228.034 294.647 C 228.565 295.333,229.080 295.823,229.179 295.735 C 229.277 295.647,228.843 295.086,228.213 294.488 L 227.069 293.400 228.034 294.647 M229.600 296.320 C 229.600 296.530,229.855 296.914,230.167 297.173 C 230.479 297.432,231.490 298.804,232.414 300.222 C 233.338 301.640,234.173 302.800,234.271 302.800 C 234.487 302.800,234.210 302.318,232.662 300.000 C 231.066 297.609,229.600 295.847,229.600 296.320 M164.600 304.400 C 164.238 305.101,164.026 305.759,164.129 305.862 C 164.232 305.965,164.606 305.469,164.960 304.760 C 165.314 304.051,165.526 303.393,165.431 303.298 C 165.336 303.203,164.962 303.699,164.600 304.400 M235.200 304.951 C 235.200 305.418,236.477 308.057,236.629 307.905 C 236.838 307.695,235.688 304.800,235.395 304.800 C 235.288 304.800,235.200 304.868,235.200 304.951 M162.600 309.200 C 162.450 309.673,162.417 310.150,162.527 310.260 C 162.637 310.370,162.850 310.073,163.000 309.600 C 163.150 309.127,163.183 308.650,163.073 308.540 C 162.963 308.430,162.750 308.727,162.600 309.200 M236.812 308.800 C 236.812 309.130,236.987 309.670,237.200 310.000 C 237.545 310.533,237.588 310.533,237.588 310.000 C 237.588 309.670,237.413 309.130,237.200 308.800 C 236.855 308.267,236.812 308.267,236.812 308.800 M237.634 311.600 C 237.646 311.930,237.811 312.560,238.000 313.000 L 238.344 313.800 238.366 313.000 C 238.378 312.560,238.213 311.930,238.000 311.600 C 237.655 311.067,237.615 311.067,237.634 311.600 M161.049 315.415 C 160.912 315.773,160.820 316.636,160.844 317.333 C 160.882 318.437,160.933 318.371,161.236 316.825 C 161.593 315.005,161.494 314.257,161.049 315.415 M238.645 316.800 C 238.790 318.010,238.974 319.075,239.054 319.167 C 239.407 319.570,239.146 315.738,238.784 315.200 C 238.503 314.782,238.461 315.267,238.645 316.800 M238.870 325.450 C 238.831 326.138,238.705 327.308,238.589 328.050 C 238.396 329.286,238.415 329.317,238.808 328.414 C 239.044 327.872,239.171 326.702,239.089 325.814 C 238.968 324.502,238.927 324.433,238.870 325.450 M160.828 326.233 C 160.844 327.095,161.017 328.160,161.214 328.600 C 161.448 329.122,161.488 328.637,161.332 327.200 C 161.043 324.558,160.789 324.070,160.828 326.233 M237.829 331.429 C 237.681 332.015,237.651 332.584,237.761 332.694 C 237.871 332.804,238.081 332.415,238.229 331.829 C 238.376 331.242,238.406 330.673,238.296 330.563 C 238.186 330.453,237.976 330.842,237.829 331.429 M164.006 337.810 C 163.987 339.181,169.545 347.299,172.216 349.800 C 174.750 352.174,174.823 351.991,172.376 349.400 C 168.635 345.439,167.699 344.188,165.641 340.400 C 164.745 338.750,164.009 337.584,164.006 337.810 M234.909 341.200 C 234.909 342.190,234.987 342.595,235.082 342.100 C 235.178 341.605,235.178 340.795,235.082 340.300 C 234.987 339.805,234.909 340.210,234.909 341.200 M235.200 343.349 C 235.200 343.954,236.850 346.000,237.327 345.987 C 237.616 345.980,237.559 345.785,237.182 345.487 C 236.842 345.219,236.257 344.555,235.882 344.011 C 235.507 343.467,235.200 343.169,235.200 343.349 M175.605 352.673 C 175.608 352.853,176.257 353.419,177.048 353.932 C 177.840 354.445,178.372 354.678,178.231 354.451 C 177.841 353.818,175.599 352.301,175.605 352.673 M179.600 355.567 C 180.563 356.352,181.200 356.608,181.200 356.210 C 181.200 356.106,180.615 355.735,179.900 355.386 L 178.600 354.752 179.600 355.567 M221.000 355.200 C 220.425 355.447,220.819 355.544,222.400 355.544 C 223.981 355.544,224.375 355.447,223.800 355.200 C 223.360 355.011,222.730 354.856,222.400 354.856 C 222.070 354.856,221.440 355.011,221.000 355.200 M224.800 355.725 C 224.800 355.793,225.385 356.272,226.100 356.788 L 227.400 357.727 226.430 356.663 C 225.602 355.755,224.800 355.293,224.800 355.725 M190.000 359.982 C 190.330 360.205,190.945 360.391,191.367 360.394 C 192.390 360.402,192.071 360.173,190.600 359.844 C 189.724 359.648,189.562 359.685,190.000 359.982 M208.800 360.000 L 207.800 360.320 208.876 360.360 C 209.468 360.382,210.064 360.220,210.200 360.000 C 210.481 359.545,210.220 359.545,208.800 360.000 M193.738 360.894 C 193.992 361.056,196.810 361.188,200.000 361.188 C 203.190 361.188,206.008 361.056,206.262 360.894 C 206.516 360.732,203.698 360.600,200.000 360.600 C 196.302 360.600,193.484 360.732,193.738 360.894 " stroke="none" fill="#4c1c1e" fill-rule="evenodd"></path></g></svg>